<?xml version="1.0" standalone="no"?><!DOCTYPE svg PUBLIC "-//W3C//DTD SVG 1.1//EN" "http://www.w3.org/Graphics/SVG/1.1/DTD/svg11.dtd"><svg t="1590634310218" class="icon" viewBox="0 0 1024 1024" version="1.1" xmlns="http://www.w3.org/2000/svg" p-id="15424" xmlns:xlink="http://www.w3.org/1999/xlink" width="128" height="128"><defs><style type="text/css"></style></defs><path d="M889.992937 139.966799H219.600487c-36.7019 0-66.522066 30.033014-66.522066 66.998926v31.188327h47.597041v-31.188327c0-10.396791 2.77316-17.520025 13.095249-17.520025h667.960052c10.323113 0 24.739451 1.972934 24.73945 12.369725v470.045469c0 6.351662-0.99363 12.756535-5.581112 16.22145v50.826596c31.541367-5.197372 55.053873-32.921807 55.053874-65.842591V206.965725c0.572028-36.96489-29.249161-66.998927-65.950038-66.998926z m-87.742367 122.445749H131.85812c-36.7019 0-66.523089 30.033014-66.523089 66.998927V815.148321c0 36.96489 29.821189 66.998927 66.523089 66.998927h670.39245c36.7019 0 66.522066-30.033014 66.522066-66.998927V329.410452c0.001023-36.96489-29.819143-66.997903-66.522066-66.997904z m-7.107885 582.623478s-663.284565-4.474918-660.396795 0.522909c-8.898671 2.466168-21.541619-13.773701-21.810748-25.213241l1.87879-321.658908h705.069227l0.719384 321.658908c-0.001023 10.973936-15.136745 24.690332-25.459858 24.690332z m26.03291-391.447367l-1.293459 7.988951H114.812909l-1.305739-133.321448c0-12.70844 15.722076-27.482935 26.044166-27.482934h655.590326c10.323113 0 26.03291 14.774495 26.03291 27.482934v125.332497z" p-id="15425"></path></svg>