<?xml version="1.0" standalone="no"?><!DOCTYPE svg PUBLIC "-//W3C//DTD SVG 1.1//EN" "http://www.w3.org/Graphics/SVG/1.1/DTD/svg11.dtd"><svg t="1588486922259" class="icon" viewBox="0 0 1024 1024" version="1.1" xmlns="http://www.w3.org/2000/svg" p-id="7465" xmlns:xlink="http://www.w3.org/1999/xlink" width="200" height="200"><defs><style type="text/css"></style></defs><path d="M254.08 257.472h516.288v-56.96h-55.04a33.6 33.6 0 0 1-33.344-33.664v-35.968H341.76v35.968c0 18.56-14.72 33.664-33.472 33.664H254.08v56.96z m171.648-56.96a20.16 20.16 0 0 1 0-40.32h172.352a20.16 20.16 0 0 1 0 40.32H425.728z m269.952 506.816H625.984a150.848 150.848 0 0 1-46.656 36.928 153.6 153.6 0 0 1-134.848 0 154.752 154.752 0 0 1-46.976-36.928H328.064l17.088 167.808a17.856 17.856 0 0 0 6.656 12.608c3.264 3.52 8.256 5.12 13.44 5.12h293.76a16.832 16.832 0 0 0 12.992-5.12l0.256 0.192a18.56 18.56 0 0 0 6.4-12.8l17.024-167.808zM307.904 509.632h89.6c13.312-15.168 28.928-27.52 46.976-36.48a148.16 148.16 0 0 1 67.264-16.128 147.2 147.2 0 0 1 67.584 16.128c17.792 8.96 34.112 21.312 46.72 36.48h89.792l18.752-185.344h-445.44l18.752 185.344z m403.904 40.32H616.768a20.224 20.224 0 0 1-16.128-8.32 115.968 115.968 0 0 0-38.848-32.96 114.176 114.176 0 0 0-99.328 0 123.712 123.712 0 0 0-38.656 32 20.032 20.032 0 0 1-16.576 9.28H311.936l12.16 117.568h83.2c6.144 0 11.776 2.816 16.064 8 9.984 13.568 23.68 24.96 39.04 32.32 14.72 8 31.552 11.84 49.344 11.84 18.048 0 34.88-3.84 50.048-11.84 15.168-7.424 28.416-18.304 38.4-31.552a20.224 20.224 0 0 1 16.576-8.768h82.944l12.16-117.568z m89.856-225.664l-56.64 557.248a85.632 85.632 0 0 1-28.16 55.68h-0.32l0.256 0.512c-15.36 13.44-36.032 22.272-57.856 22.272H365.248c-22.272 0-42.88-8.768-58.24-22.272a87.552 87.552 0 0 1-28.032-56.192L222.08 324.288h-1.6a33.536 33.536 0 0 1-33.472-33.408V198.144A64.128 64.128 0 0 1 251.264 133.76h24.192v-14.72c0-14.912 5.632-28.928 15.872-38.848v0.256A53.568 53.568 0 0 1 329.984 64h363.84c14.912 0 28.672 6.144 38.656 16.128l0.448 0.256c9.984 9.92 16.128 23.68 16.128 38.592v14.72h23.68c17.28 0 33.664 7.104 45.504 18.944 11.392 11.392 18.752 27.968 18.752 45.504V290.88a33.6 33.6 0 0 1-33.664 33.408h-1.664z" p-id="7466"></path></svg>