<?xml version="1.0" standalone="no"?><!DOCTYPE svg PUBLIC "-//W3C//DTD SVG 1.1//EN" "http://www.w3.org/Graphics/SVG/1.1/DTD/svg11.dtd"><svg t="1590633246460" class="icon" viewBox="0 0 1181 1024" version="1.1" xmlns="http://www.w3.org/2000/svg" p-id="12503" xmlns:xlink="http://www.w3.org/1999/xlink" width="147.625" height="128"><defs><style type="text/css"></style></defs><path d="M1117.5659375 260.0740625L912.284375 54.8a73.8646875 73.8646875 0 0 0-58.126875-21.451875 69.22125 69.22125 0 0 0-5.9625-0.268125H738.828125l-7.6715625 4.2646875c-40.5225 22.54125-92.2153125 34.9471875-145.5684375 34.9471875-53.3540625 0-105.046875-12.4059375-145.56-34.9471875l-7.6715625-4.2646875H322.990625a74.510625 74.510625 0 0 0-65.9071875 39.37875L54.171875 275.369375A73.670625 73.670625 0 0 0 32.4434375 327.8c0 19.809375 7.7165625 38.4375 21.72 52.44l148.2553125 148.25625a73.531875 73.531875 0 0 0 45.70125 21.405v358.2834375c0 41.28 33.58125 74.86125 74.86125 74.86125h525.2128125c41.28 0 74.86125-33.571875 74.86125-74.86125V534.66125a73.550625 73.550625 0 0 0 46.246875-21.451875l148.26375-148.25625c28.910625-28.9190625 28.910625-75.9684375 0-104.8790625z m-47.86125 57.028125l-148.25625 148.2459375a6.2765625 6.2765625 0 0 1-4.5225 1.8825 6.3965625 6.3965625 0 0 1-4.4671875-1.771875l-57.075-53.870625v496.5965625a7.20375 7.20375 0 0 1-7.2 7.2H323a7.2 7.2 0 0 1-7.2-7.2V429.2646875l-56.611875 51.5625a6.4153125 6.4153125 0 0 1-4.3846875 1.689375 6.2765625 6.2765625 0 0 1-4.5234375-1.873125l-148.25625-148.25625a6.369375 6.369375 0 0 1-1.9003125-4.5871875 6.369375 6.369375 0 0 1 1.90125-4.57875L306.8553125 118.390625l6.5446875-5.88 2.9353125-7.246875a7.2 7.2 0 0 1 6.65625-4.513125h92.085c49.5328125 25.68 108.2775 39.2128125 170.52 39.2128125 62.2434375 0 120.988125-13.5328125 170.52-39.2128125h92.0315625c0.3684375 0.01875 0.7378125 0.0740625 1.0884375 0.129375l4.828125 0.691875 4.8375-0.70125a6.0834375 6.0834375 0 0 1 5.5378125 1.78125l205.2740625 205.275a6.49875 6.49875 0 0 1 0 9.174375z" fill="" p-id="12504"></path></svg>