<?xml version="1.0" standalone="no"?><!DOCTYPE svg PUBLIC "-//W3C//DTD SVG 1.1//EN" "http://www.w3.org/Graphics/SVG/1.1/DTD/svg11.dtd"><svg t="1588486877486" class="icon" viewBox="0 0 1280 1024" version="1.1" xmlns="http://www.w3.org/2000/svg" p-id="5414" xmlns:xlink="http://www.w3.org/1999/xlink" width="250" height="200"><defs><style type="text/css"></style></defs><path d="M115.821714 689.664c52.992 53.211429 127.085714 97.609143 214.052572 128.109714 87.332571 30.72 186.697143 46.957714 287.890285 46.957715h3.657143a92.16 92.16 0 0 0 3.84-0.182858c159.707429-1.243429 309.833143-41.910857 422.4-114.212571 54.820571-35.181714 97.828571-76.068571 127.634286-121.307429 29.147429-44.178286 44.690286-90.843429 46.189714-138.642285h-0.256c-6.692571 205.494857-271.725714 371.236571-596.077714 373.76h-7.68c-205.348571 0-392.411429-65.060571-501.613714-175.067429C59.574857 632.685714 28.342857 567.369143 25.453714 499.931429H25.270857c2.925714 67.510857 34.011429 132.790857 90.550857 189.696z m501.942857 193.353143c-103.204571 0-204.653714-16.566857-293.961142-47.981714-89.417143-31.378286-165.888-77.165714-220.928-132.461715C40.521143 639.853714 7.204571 566.747429 6.729143 490.971429l-0.036572-9.142858 36.790858-0.292571 0.036571 9.142857c0.329143 65.609143 29.732571 129.828571 85.284571 185.490286 105.508571 106.276571 287.817143 169.691429 488.630858 169.691428h7.68c320.219429-2.486857 578.852571-167.131429 577.974857-364.507428l-0.036572-9.106286 36.790857-0.292571 0.036572 9.142857c0.329143 54.747429-16.384 108.032-49.334857 157.988571-31.268571 47.469714-76.141714 90.148571-133.010286 126.646857-115.602286 74.24-269.129143 115.858286-431.652571 117.101715a84.662857 84.662857 0 0 1-4.205715 0.146285h-3.913143z" fill="#000000" p-id="5415"></path><path d="M183.405714 484.425143l-0.036571-3.437714c0-94.902857 74.24-172.068571 165.997714-172.068572 88.832 0 161.353143 72.301714 165.924572 162.925714h0.256c-4.608-91.026286-77.385143-163.510857-166.034286-163.510857-91.721143 0-166.4 77.348571-166.4 172.653715l0.036571 3.474285h0.256z m-18.066285 10.422857a197.814857 197.814857 0 0 1-0.512-13.860571c0-105.252571 82.724571-190.939429 184.685714-190.939429 101.851429 0 184.539429 85.723429 184.539428 190.939429v9.142857h-36.790857v-9.142857c0-84.918857-66.377143-153.782857-147.894857-153.782858-81.517714 0-147.748571 68.827429-147.748571 153.782858 0 3.730286 0.182857 7.606857 0.475428 11.227428l0.731429 9.216-36.864 2.523429-0.621714-9.142857z m973.385142-11.995429l88.137143-0.585142v-0.585143l-88.137143 0.585143v0.585142z m106.313143-19.565714l0.219429 37.156572-124.708572 0.804571-0.219428-37.12 124.708571-0.841143z" fill="#000000" p-id="5416"></path><path d="M18.870857 489.069714l667.611429-4.644571 433.92-3.072v-0.585143l-433.956572 3.072-667.574857 4.681143v0.548571z m-18.285714-18.724571l9.069714-0.073143 676.681143-4.717714 452.388571-3.181715v37.12l-9.106285 0.073143-442.989715 3.145143-686.08 4.754286v-37.12z m303.323428-65.718857c-23.186286-6.582857-13.604571-42.057143 9.874286-35.986286 20.845714 5.924571 42.788571 1.536 60.598857-11.995429 9.142857-6.912 20.114286-3.584 25.270857 5.485715a19.419429 19.419429 0 0 1-4.790857 25.417143 104.704 104.704 0 0 1-90.953143 17.078857z m79.835429-31.597715a0.950857 0.950857 0 0 0 0.365714-0.841142 86.528 86.528 0 0 1-75.117714 14.116571c0.073143 0-0.109714 0.731429-0.146286 0.731429a86.381714 86.381714 0 0 0 74.898286-14.006858z" fill="#000000" p-id="5417"></path><path d="M375.625143 381.074286a19.017143 19.017143 0 0 1-13.787429 21.979428c-9.984 2.816-20.077714-2.56-21.942857-13.531428-8.886857-47.542857-41.801143-88.32-85.394286-105.435429a19.236571 19.236571 0 0 1-11.227428-23.222857c2.669714-10.093714 12.324571-16.164571 22.893714-11.995429a178.761143 178.761143 0 0 1 109.458286 132.242286zM260.827429 266.459429c0 0.365714 0.182857 0.585143 0.402285 0.694857 49.042286 19.2 85.942857 64.585143 96.402286 117.76v-0.438857a160.512 160.512 0 0 0-96.804571-118.016z m512.402285 670.208l0.146286-4.169143c0.256-7.862857 0.292571-16.091429 0.146286-25.453715-0.292571-16.676571-1.462857-34.011429-3.364572-52.48-1.133714-11.300571 7.131429-19.126857 17.481143-19.090285a19.017143 19.017143 0 0 1 19.2 17.115428c2.706286 23.954286 3.913143 47.725714 3.620572 71.204572v5.997714c0.109714 5.12 0.109714 7.606857 0 10.678857-0.731429 21.869714-7.570286 35.803429-26.331429 38.912a240.64 240.64 0 0 1-32.219429 2.742857l-10.24 0.292572a635.611429 635.611429 0 0 0-16.896 0.548571c-16.603429 0.804571-29.878857 1.353143-59.757714 2.523429a3984.713143 3984.713143 0 0 1-182.857143 2.669714 1463.332571 1463.332571 0 0 1-32.438857-0.292571h-4.827428a145.188571 145.188571 0 0 1-5.046858 0.073142 36.096 36.096 0 0 1-16.457142-3.218285c-10.532571-5.156571-14.774857-14.445714-16.018286-27.904-0.438857-5.485714-0.731429-9.874286-1.316572-19.675429l-0.548571-9.764571a5565.988571 5565.988571 0 0 0-4.022857-62.171429 17.261714 17.261714 0 0 1 17.810286-18.870857 18.285714 18.285714 0 0 1 18.651428 17.737143 6208.512 6208.512 0 0 0 5.083429 77.750857c0.109714 1.462857 0.109714 2.779429 0.073143 5.302857v3.437714c1.828571 0 3.620571 0 6.912 0.073143l7.606857 0.073143a4177.042286 4177.042286 0 0 0 266.093714-4.864l13.824-0.731428 2.742857-0.109715 11.008-0.585143 8.411429-0.292571 3.693714-0.109714c3.876571-0.109714 6.875429-0.292571 9.581714-0.585143a169.691429 169.691429 0 0 0 0.256-6.765714z m-348.891428-0.585143a2441.874286 2441.874286 0 0 0-0.146286-2.340572l0.146286 2.340572z m7.168 32.256a20.114286 20.114286 0 0 0 8.484571 1.316571l4.461714-0.036571c2.779429-0.073143 4.096-0.073143 5.632-0.036572a4146.724571 4146.724571 0 0 0 91.867429 0.292572c43.702857-0.329143 83.858286-1.170286 122.331429-2.669715 29.842286-1.170286 43.081143-1.718857 59.611428-2.486857 4.790857-0.256 8.704-0.365714 17.334857-0.585143l10.057143-0.256c12.434286-0.402286 21.430857-1.097143 29.842286-2.523428 7.606857-1.243429 10.569143-7.314286 11.044571-21.504a201.069714 201.069714 0 0 0 0-9.874286 280.137143 280.137143 0 0 1 0-6.4 551.094857 551.094857 0 0 0-3.510857-69.010286 0.914286 0.914286 0 0 0-0.182857-0.512c1.901714 18.468571 3.035429 35.876571 3.291429 52.662858 0.182857 9.691429 0.146286 18.212571-0.146286 26.441142l-0.109714 3.986286a156.964571 156.964571 0 0 1-0.365715 8.630857l-0.073143 1.426286c-0.438857 7.68-3.437714 12.617143-11.702857 13.824a110.08 110.08 0 0 1-15.396571 1.28l-3.803429 0.109714a247.003429 247.003429 0 0 0-7.899428 0.292572l-11.044572 0.548571-2.779428 0.146286-13.787429 0.731428a4192.914286 4192.914286 0 0 1-282.441143 4.754286h-0.841143l-0.768 0.109714a12.946286 12.946286 0 0 1-7.789714-1.133714l-4.608-3.401143c-1.718857-3.510857-1.718857-3.510857-1.828571-4.022857a22.308571 22.308571 0 0 1-0.109715-0.256c0.950857 4.388571 2.56 6.838857 5.229715 8.155429z m356.388571-489.435429a245.650286 245.650286 0 0 1-25.197714-109.421714c0-121.709714 85.833143-221.147429 192.109714-221.147429 106.24 0 192.073143 99.474286 192.073143 221.147429 0 33.755429-6.729143 67.108571-19.565714 97.170286a244.297143 244.297143 0 0 0 19.748571-97.170286c0-122.514286-86.564571-221.732571-192.256-221.732572-105.728 0-192.329143 99.218286-192.329143 221.732572 0 38.473143 8.704 76.178286 25.124572 109.568l0.292571-0.146286z m-12.068571 17.188572a265.801143 265.801143 0 0 1-31.634286-126.610286c0-132.096 94.171429-240.018286 210.614857-240.018286 116.406857 0 210.578286 107.922286 210.578286 240.018286a266.130286 266.130286 0 0 1-25.088 113.590857l-3.986286 8.374857-33.060571-16.237714 3.84-8.155429a229.266286 229.266286 0 0 0 21.504-97.572571c0-112.164571-78.262857-202.861714-173.787429-202.861714-95.524571 0-173.824 90.697143-173.824 202.861714 0 38.729143 9.362286 76.178286 27.099429 108.580571l4.315428 7.862857-32.073143 18.358858-4.461714-8.192z" fill="#000000" p-id="5418"></path><path d="M921.124571 168.850286a17.773714 17.773714 0 0 1-25.234285-6.473143 282.038857 282.038857 0 0 0-110.884572-110.555429c-9.618286-5.302857-11.702857-16.347429-6.656-25.088a18.102857 18.102857 0 0 1 24.868572-7.277714 319.597714 319.597714 0 0 1 124.708571 124.379429 18.139429 18.139429 0 0 1-6.802286 25.014857z m-9.435428-15.469715c-0.109714 0-0.146286-0.109714 0.036571-0.219428 0.475429-0.256 0.365714-0.073143 0.256-0.292572A301.421714 301.421714 0 0 0 794.404571 35.474286c-0.109714-0.073143 0.109714-0.146286-0.219428 0.365714-0.109714 0.256-0.219429 0.219429-0.256 0.146286A299.081143 299.081143 0 0 1 911.725714 153.234286l-0.073143 0.109714z" fill="#000000" p-id="5419"></path><path d="M896.292571 147.309714C896.804571 77.897143 954.148571 21.869714 1022.244571 24.941714a18.285714 18.285714 0 0 1 17.700572 18.944c0 10.130286-7.387429 18.651429-18.468572 18.176-47.981714-2.121143-88.100571 36.461714-88.393142 85.357715 0 24.246857-36.790857 24.246857-36.790858-0.109715z m125.184-104.082285c-57.673143-2.56-106.459429 45.056-106.898285 104.155428 0-0.073143 0.219429-0.073143 0.219428 0 0.365714-59.099429 48.749714-105.837714 106.861715-103.606857 0-0.585143 0-0.548571-0.182858-0.548571zM879.177143 240.896c-11.264 0.877714-18.907429-7.570286-18.834286-17.883429A18.834286 18.834286 0 0 1 877.714286 203.812571a244.736 244.736 0 0 0 67.218285-15.323428c10.605714-4.022857 20.260571 2.121143 22.930286 12.141714a19.090286 19.090286 0 0 1-11.52 23.186286 279.625143 279.625143 0 0 1-77.165714 17.078857z m70.656-34.157714c0.292571-0.109714 0.438857-0.329143 0.438857-0.731429a262.582857 262.582857 0 0 1-71.094857 16.018286c-0.292571 0-0.475429 0.146286-0.512 0.548571 24.868571-2.048 48.64-7.314286 71.168-15.835428z" fill="#000000" p-id="5420"></path><path d="M898.011429 153.782857a18.249143 18.249143 0 0 1 11.190857-8.521143 18.468571 18.468571 0 0 1 22.893714 11.849143l5.339429 15.396572 0.877714 2.56 5.046857 14.738285 5.924571 7.899429-3.730285 1.536c0 7.314286-4.534857 13.458286-11.702857 15.945143a20.114286 20.114286 0 0 1-18.980572-3.072l-2.377143 0.987428-2.121143-5.997714a98.450286 98.450286 0 0 1-16.347428-37.010286 18.432 18.432 0 0 1 4.022857-16.310857z m13.897142 12.397714c1.828571 8.484571 4.864 16.384 8.996572 23.588572l0.365714-0.146286a85.869714 85.869714 0 0 1-9.069714-24.100571c-0.365714 0.146286-0.365714 0.256-0.292572 0.658285z m14.555429 31.561143a1969.92 1969.92 0 0 1-3.108571-9.033143 3059.2 3059.2 0 0 0-2.084572 0.914286c1.572571 2.742857 3.291429 5.485714 5.193143 8.118857z m0.548571 0.731429l0.182858 0.475428 0.073142-0.109714 0.292572 0.365714 7.314286-5.485714-3.474286-8.411428c-2.267429 0.914286-4.096 1.718857-7.789714 3.291428a2153.069714 2153.069714 0 0 0 3.401142 9.874286z m-5.997714-17.481143l-0.877714-2.56a2779.428571 2779.428571 0 0 0-5.302857-15.36c-0.073143-0.256-0.146286-0.329143-0.365715-0.256l5.924572 17.298286 2.048 5.961143 0.914286 2.633142 0.256-0.109714-2.596572-7.606857z m-6.582857 11.52l3.510857 8.448 8.630857-2.998857a0.914286 0.914286 0 0 1-0.365714-0.219429c-1.938286-2.56-3.693714-5.193143-5.302857-7.972571-2.925714 1.28-4.534857 1.938286-6.473143 2.742857zM534.784 240.493714c7.058286-7.204571 18.249143-8.045714 25.965714-0.182857a121775.835429 121775.835429 0 0 0 168.118857 171.995429l56.064 57.307428a18.212571 18.212571 0 0 1-0.292571 25.892572 17.700571 17.700571 0 0 1-25.965714 0.219428 121772.032 121772.032 0 0 0-168.082286-171.995428l-56.027429-57.270857a18.139429 18.139429 0 0 1 0.219429-25.965715z m12.836571 13.165715a243112.850286 243112.850286 0 0 0 112.091429 114.578285c45.275429 46.336 78.921143 80.713143 111.835429 114.468572 0.365714-0.365714 0.365714-0.219429 0.256-0.365715a242585.782857 242585.782857 0 0 0-112.054858-114.541714l-111.981714-114.614857c-0.365714 0.512-0.329143 0.292571-0.146286 0.475429z" fill="#000000" p-id="5421"></path><path d="M563.2 240.566857c7.131429 7.204571 7.68 18.468571-0.365714 25.782857-11.227429 10.715429-17.408 26.148571-21.357715 49.078857a192.548571 192.548571 0 0 0-0.585142 55.917715 191.268571 191.268571 0 0 0 45.165714 100.461714 18.761143 18.761143 0 0 1-0.877714 25.856c-7.204571 7.424-18.505143 8.045714-25.965715-0.365714a229.376 229.376 0 0 1-54.966857-123.465143c-6.729143-54.564571 2.706286-105.325714 33.024-133.924572a18.139429 18.139429 0 0 1 25.965714 0.658286z m24.027429-7.936c7.058286-7.204571 18.249143-8.045714 25.965714-0.182857 46.262857 47.542857 83.382857 85.504 166.875428 170.788571a18.249143 18.249143 0 0 1-0.219428 25.965715 17.700571 17.700571 0 0 1-25.965714 0.182857c-46.262857-47.542857-83.382857-85.467429-166.875429-170.788572a18.139429 18.139429 0 0 1 0.219429-25.965714z m12.909714 12.617143c-0.073143-0.073143 0.438857-0.109714 0.109714 0.182857-0.365714 0.402286-0.365714 0.182857-0.182857 0.365714 83.419429 85.211429 120.539429 123.209143 166.692571 170.605715 0.365714-0.365714 0.365714-0.219429 0.256-0.365715a79513.197714 79513.197714 0 0 1-166.875428-170.788571z" fill="#000000" p-id="5422"></path><path d="M614.985143 232.045714c6.838857 6.948571 7.972571 17.92 1.097143 25.782857-7.387429 8.667429-11.373714 20.150857-14.628572 38.765715-2.011429 11.081143-12.068571 16.384-22.016 13.604571a18.944 18.944 0 0 1-13.897143-21.869714c4.096-23.296 11.081143-41.179429 23.515429-55.588572 7.314286-8.594286 18.688-8.045714 25.965714-0.694857z m-31.451429 59.501715c0 0.292571 0 0.475429 0.146286 0.658285 3.693714-20.845714 8.594286-34.633143 18.578286-46.336 0.146286-0.182857 0.182857-0.329143 0.073143-0.512-9.581714 11.410286-15.286857 26.185143-18.761143 46.189715z" fill="#000000" p-id="5423"></path></svg>