<?xml version="1.0" standalone="no"?><!DOCTYPE svg PUBLIC "-//W3C//DTD SVG 1.1//EN" "http://www.w3.org/Graphics/SVG/1.1/DTD/svg11.dtd"><svg t="1590633143175" class="icon" viewBox="0 0 1095 1024" version="1.1" xmlns="http://www.w3.org/2000/svg" p-id="10793" xmlns:xlink="http://www.w3.org/1999/xlink" width="136.875" height="128"><defs><style type="text/css"></style></defs><path d="M1024.425754 1023.846674H93.998545c-51.386182 0-93.023829-41.636278-93.023828-93.02246V139.967658C0.974717 62.888385 63.466096 0.395636 140.546738 0.395636h465.194438c77.082011 0 139.574759 62.494118 139.57476 139.573391v255.871315h255.835722c51.386182 0 93.059422 41.637647 93.059422 93.025198v465.194439c0.001369 38.558802-31.263487 69.786695-69.785326 69.786695z m-744.342588-69.785326h186.085989v-186.08599c0-12.82738-10.409754-23.237134-23.237134-23.237133H303.357262c-12.864342 0-23.272727 10.409754-23.272727 23.237133v186.08599zM678.58892 140.320856c0-38.751829-31.423658-70.138524-70.139893-70.138524h-467.549091c-38.753198 0-70.139893 31.386695-70.139893 70.138524v794.856727c0 12.893091 10.463144 23.354866 23.354866 23.354866h140.279786V748.149733c0-25.823144 20.92492-46.746695 46.748064-46.746696h187.027851c25.821775 0 46.746695 20.923551 46.746695 46.746696v210.382716h163.671615V140.320856z m345.836834 348.544684c0-12.864342-10.409754-23.272727-23.272727-23.272727H745.315936v139.570652h162.810524c12.82738 0 23.238503 10.409754 23.238503 23.274096 0 12.82738-10.409754 23.238503-23.238503 23.238503H745.315936v93.062161h162.813262c12.82738 0 23.237134 10.409754 23.237134 23.237133 0 12.864342-10.409754 23.274096-23.238503 23.274097H745.315936v162.811893h255.835722c12.864342 0 23.272727-10.409754 23.272727-23.238503V488.86554h0.001369zM396.38246 395.841711v116.299294c0 12.82738-10.409754 23.238503-23.237134 23.238503-12.865711 0-23.275465-10.409754-23.275465-23.238503V395.841711h-116.297925c-12.82738 0-23.274096-10.445348-23.274096-23.274096 0-12.865711 10.445348-23.274096 23.274096-23.274096h116.297925v-116.299294c0-12.82738 10.409754-23.237134 23.275465-23.237134 12.82738 0 23.237134 10.409754 23.237134 23.237134v116.297925h116.297925c12.865711 0 23.272727 10.409754 23.272727 23.272727 0 12.828749-10.408385 23.275465-23.272727 23.275465h-116.297925z m93.060791-279.146781h93.025198c25.693091 0 46.51123 21.917433 46.51123 48.930225v49.848813c0 22.467765-23.237134 23.604021-23.237134 0v-49.848813c0-13.524193-10.409754-24.484278-23.274096-24.484278h-93.025198c-20.158289 0-21.772321-24.445947 0-24.445947z m-58.166759 24.703316c-6.415059 0-11.618567-5.533433-11.618567-12.350973 0-6.816171 5.203508-12.352342 11.618567-12.352343 6.41369 0 11.655529 5.536171 11.655529 12.352343s-5.243209 12.350973-11.655529 12.350973z" fill="#333333" p-id="10794"></path></svg>