<?xml version="1.0" standalone="no"?><!DOCTYPE svg PUBLIC "-//W3C//DTD SVG 1.1//EN" "http://www.w3.org/Graphics/SVG/1.1/DTD/svg11.dtd"><svg t="1590633004769" class="icon" viewBox="0 0 1025 1024" version="1.1" xmlns="http://www.w3.org/2000/svg" p-id="5273" xmlns:xlink="http://www.w3.org/1999/xlink" width="128.125" height="128"><defs><style type="text/css"></style></defs><path d="M562.535 75.483V55.279C562.535 24.875 537.66 0 507.257 0h-6.898c-30.427 0-55.278 24.877-55.278 55.28v22.403C214.618 110.508 36.84 309.051 36.84 548.418c0 262.236 213.34 475.577 475.6 475.577 35.073 0 70.103-3.84 104.053-11.422 16.951-3.79 27.64-20.571 23.849-37.52-3.79-16.975-20.668-27.591-37.544-23.85-29.477 6.556-59.877 9.906-90.357 9.906-227.576 0-412.739-185.139-412.739-412.69s185.163-412.716 412.739-412.716c227.554 0 412.693 185.165 412.693 412.715 0 30.355-3.327 60.636-9.836 89.988-3.765 16.951 6.899 33.731 23.875 37.497 16.925 3.84 33.73-6.897 37.52-23.848 7.51-33.804 11.325-68.683 11.325-103.638 0-245.31-186.704-447.815-425.486-472.935h0.002zM513.298 278.01c-17.365 0-31.429 14.087-31.429 31.43v237.065c0 17.37 14.065 31.456 31.43 31.456h221.853c17.39 0 31.43-14.087 31.43-31.456 0-17.365-14.04-31.429-31.43-31.429H544.755V309.442c0-17.342-14.065-31.43-31.456-31.43v-0.002z m296.139 406.061c-91.505 0-165.692 74.163-165.692 165.668 0 91.481 74.188 165.643 165.692 165.643 91.481 0 165.643-74.161 165.643-165.643 0-91.504-74.16-165.668-165.643-165.668z m55.378 186.827c9.809 0 17.757 7.95 17.757 17.734 0 9.809-7.948 17.733-17.757 17.733h-36.838v33.902c0 9.81-7.975 17.758-17.758 17.758-9.806 0-17.757-7.949-17.757-17.758v-33.902h-40.016c-9.81 0-17.758-7.925-17.758-17.733 0-9.785 7.949-17.734 17.758-17.734h40.013v-19.347h-38.451c-9.785 0-17.733-7.949-17.733-17.733 0-9.806 7.947-17.758 17.733-17.758h24.9l-27.174-27.2c-6.923-6.923-6.923-18.15 0-25.073 6.922-6.946 18.174-6.946 25.073 0l33.607 33.584 33.607-33.584c6.946-6.946 18.174-6.946 25.096 0 6.947 6.922 6.947 18.15 0 25.072l-27.2 27.201h24.486c9.806 0 17.733 7.95 17.733 17.758 0 9.784-7.926 17.733-17.733 17.733h-38.428v19.347h36.839z" fill="" p-id="5274"></path></svg>