<?xml version="1.0" standalone="no"?><!DOCTYPE svg PUBLIC "-//W3C//DTD SVG 1.1//EN" "http://www.w3.org/Graphics/SVG/1.1/DTD/svg11.dtd"><svg t="1590633366856" class="icon" viewBox="0 0 1203 1024" version="1.1" xmlns="http://www.w3.org/2000/svg" p-id="15156" xmlns:xlink="http://www.w3.org/1999/xlink" width="150.375" height="128"><defs><style type="text/css"></style></defs><path d="M896.754526 505.352982h0.03593c20.623719 0 37.367018-16.527719 37.384983-36.881964a37.133474 37.133474 0 0 0-37.367018-36.97179l-91.567158-0.07186 101.358035-119.269052a36.594526 36.594526 0 0 0-4.599017-52.008421 37.726316 37.726316 0 0 0-52.691088 4.545123l-119.161263 140.198175-119.143298-140.198175a37.744281 37.744281 0 0 0-52.691088-4.545123 36.594526 36.594526 0 0 0-4.599018 52.008421l101.268211 119.161263-96.561404-0.07186h-0.035929c-20.641684 0-37.367018 16.527719-37.402948 36.89993a37.133474 37.133474 0 0 0 37.367018 36.953825l131.934315 0.107789-0.053894 56.104421-131.826527-0.089824h-0.035929c-20.623719 0-37.367018 16.527719-37.384983 36.899929a37.133474 37.133474 0 0 0 37.367018 36.953825l131.808561 0.10779-0.089824 100.334035c-0.017965 20.426105 16.707368 36.93586 37.367017 36.971789h0.017965c20.641684 0 37.367018-16.527719 37.402947-36.89993l0.089825-100.352 131.808561 0.089825h0.03593c20.623719 0 37.367018-16.509754 37.384983-36.881965a37.133474 37.133474 0 0 0-37.367018-36.97179l-131.790596-0.089824 0.053894-56.122386 131.682807 0.089824z" fill="#2c2c2c" p-id="15157"></path><path d="M1118.818807 0H37.456842C23.839439 0 11.317895 7.347649 4.706807 19.186526a37.133474 37.133474 0 0 0 0.970105 37.798176l86.770527 138.509473-86.770527 138.545404a37.187368 37.187368 0 0 0 0 39.450947l86.770527 138.509474-86.770527 138.545404a37.187368 37.187368 0 0 0 0 39.450947l86.770527 138.509474-86.770527 138.509473c-7.20393 11.497544-7.581193 25.959298-0.970105 37.798176A37.492772 37.492772 0 0 0 37.456842 1024h1081.361965C1165.599439 1024 1203.649123 986.112 1203.649123 939.564912V84.435088C1203.649123 37.888 1165.599439 0 1118.818807 0z m9.934597 939.564912c0 5.461333-4.455298 9.898667-9.934597 9.898667H340.417123v-37.259228a37.349053 37.349053 0 0 0-37.438877-37.259228 37.349053 37.349053 0 0 0-37.438878 37.259228v37.259228H104.915088l63.45207-101.232281a37.187368 37.187368 0 0 0 0-39.450947L81.560702 670.270877l86.806456-138.545403a37.187368 37.187368 0 0 0 0-39.450948l-86.806456-138.509473 86.806456-138.545404a37.187368 37.187368 0 0 0 0-39.450947L104.915088 74.554386h160.606316v37.259228c0 20.605754 16.761263 37.259228 37.438877 37.259228a37.349053 37.349053 0 0 0 37.438877-37.259228V74.554386h778.401684c5.479298 0 9.952561 4.437333 9.952562 9.880702V939.564912z" fill="#2c2c2c" p-id="15158"></path><path d="M305.403509 554.93614c-19.833263 0-35.929825 16.743298-35.929825 37.420913v160.69614c0 20.659649 16.078596 37.402947 35.929825 37.402947 19.833263 0 35.929825-16.725333 35.929824-37.402947v-160.69614c0-20.677614-16.078596-37.420912-35.929824-37.420913zM305.403509 233.54386c-19.833263 0-35.929825 16.725333-35.929825 37.402947v160.69614c0 20.677614 16.078596 37.420912 35.929825 37.420913 19.833263 0 35.929825-16.743298 35.929824-37.420913v-160.69614c0-20.659649-16.078596-37.402947-35.929824-37.402947z" fill="#2c2c2c" p-id="15159"></path></svg>