<?xml version="1.0" standalone="no"?><!DOCTYPE svg PUBLIC "-//W3C//DTD SVG 1.1//EN" "http://www.w3.org/Graphics/SVG/1.1/DTD/svg11.dtd"><svg t="1588486964337" class="icon" viewBox="0 0 1024 1024" version="1.1" xmlns="http://www.w3.org/2000/svg" p-id="8931" xmlns:xlink="http://www.w3.org/1999/xlink" width="200" height="200"><defs><style type="text/css"></style></defs><path d="M285.4 512c0-31 25.2-56.2 56.2-56.2s56.2 25.2 56.2 56.2-25.2 56.2-56.2 56.2c-14.9 0-29.2-5.9-39.7-16.5-10.6-10.5-16.5-24.8-16.5-39.7zM469 512c0-31 25.2-56.2 56.2-56.2s56.2 25.2 56.2 56.2-25.2 56.2-56.2 56.2c-14.9 0-29.2-5.9-39.7-16.5-10.6-10.5-16.5-24.8-16.5-39.7zM708.7 568.2c-31 0-56.2-25.2-56.2-56.2s25.2-56.2 56.2-56.2 56.2 25.2 56.2 56.2c0 14.9-5.9 29.2-16.5 39.7-10.6 10.6-24.8 16.5-39.7 16.5z" fill="#626262" p-id="8932"></path><path d="M518.8 494.2v0.2s-46.2-17.3 0-0.2zM518.8 719.2s0 0.3-0.2 0.4c-45.2 10.7 0.3-0.4 0.2-0.4z" fill="#1890FF" p-id="8933"></path></svg>