<?xml version="1.0" standalone="no"?><!DOCTYPE svg PUBLIC "-//W3C//DTD SVG 1.1//EN" "http://www.w3.org/Graphics/SVG/1.1/DTD/svg11.dtd"><svg t="1588486905261" class="icon" viewBox="0 0 1024 1024" version="1.1" xmlns="http://www.w3.org/2000/svg" p-id="6378" xmlns:xlink="http://www.w3.org/1999/xlink" width="200" height="200"><defs><style type="text/css"></style></defs><path d="M873.2 367.5C821.4 266.2 719.7 192 600.1 167.6c-10.1-39.1-45.6-68-87.8-68-42.3 0-77.8 28.9-87.8 68-119.7 24.5-220.8 98.2-272.9 199.8-11 21.5-16.7 48.5-16.1 76 0.7 28.4 7.9 55.2 20.8 77.3 6.9 11.9 15.4 22.2 25.1 30.5L226 901c1.7 13.3 13.1 23.3 26.5 23.3H773c13.4 0 24.8-10 26.5-23.4l43.7-350.1c9.6-8.4 18-18.8 25-30.8 25.9-45 28-107.7 5-152.5z m-361-232.1c30.3 0 55 24.7 55 55s-24.7 55-55 55-55-24.7-55-55c0.1-30.3 24.7-55 55-55zM220 572.7c9.3 2.8 19 4.5 29.3 5 5.8 0.3 11.8-0.9 17.3-3.2l8.2-3.5 29.1 317.6h-43.5L220 572.7z m462.9 315.8h-58.1l15-319.4 9.7 5.1c19.7 10.4 42.9 10 62.3-0.8l-28.9 315.1z m-93.9 0h-65.2V566.3l13 7.4c18.7 10.7 41.4 11.5 60.8 2.1l6.2-3L589 888.5z m-100.8 0h-54.5L418.4 565l21.8 10.5c15.2 7.3 32.3 8.4 47.9 3.4v309.6z m-105-311.7l14.7 311.7h-58.1l-29.4-320.1 16.9 8.1c8.9 4.3 18.6 6.4 28.2 6.4 9.5 0 19-2 27.7-6.1zM765 888.5h-46.3L748 569.7l9.6 4.4c5.8 2.6 12.2 3.8 18.6 3.5 9.9-0.5 19.3-2.2 28.2-5L765 888.5z m72.3-386.3c-9.9 17.2-28.8 38-62.9 39.8-0.7 0-1.4-0.1-2-0.4l-24.5-11.1c-11.7-5.3-25.4-4.6-36.5 1.8l-16.7 9.7c-8.9 5.1-19.6 5.4-28.6 0.6l-21.4-11.3c-11.1-5.9-24.5-6.1-35.9-0.6l-26.7 12.9c-8.8 4.2-19.1 3.9-27.5-0.9l-17-9.7c-12.7-7.3-28.4-7-40.8 0.8l-12.7 7.9c-8.6 5.4-19.3 6-28.4 1.6l-26.3-12.6c-11.2-5.4-24.5-5.2-35.5 0.5L369.1 544c-8.2 4.2-18 4.4-26.4 0.4l-29.4-14.1c-10.4-5-22.4-5.2-33-0.7l-28 12.1c-0.6 0.2-1.1 0.4-1.6 0.3-34.8-1.5-53.9-22.2-63.8-39.2-19.6-33.8-21.3-84.9-3.8-119 45.8-89.4 134.1-155.1 239.3-179.1 6.8 43.3 44.3 76.5 89.6 76.5s82.8-33.2 89.6-76.5c105.2 24 193.9 90.1 239.6 179.2 17.7 34 16 83.8-3.9 118.3z m0 0" p-id="6379"></path><path d="M350 297.9l-57.6 35.3c-8.4 5.2-11.1 16.2-5.9 24.6 3.4 5.5 9.2 8.5 15.2 8.5 3.2 0 6.4-0.8 9.3-2.6l57.6-35.3c8.4-5.2 11.1-16.2 5.9-24.6-5.1-8.4-16.1-11.1-24.5-5.9z m0 0M530.1 334.3c-7.8-6-19-4.5-25 3.3L455 402.9c-6 7.8-4.5 19 3.3 25.1 3.2 2.5 7.1 3.7 10.9 3.7 5.4 0 10.7-2.4 14.2-7l50.1-65.3c5.9-7.9 4.4-19.1-3.4-25.1z m0 0M718.6 332.6l-57-30c-8.7-4.6-19.5-1.3-24.1 7.5-4.6 8.7-1.3 19.5 7.5 24.1l57 30.1c2.7 1.4 5.5 2.1 8.3 2.1 6.4 0 12.6-3.5 15.8-9.5 4.6-8.9 1.2-19.7-7.5-24.3z m0 0" p-id="6380"></path></svg>