<?xml version="1.0" standalone="no"?><!DOCTYPE svg PUBLIC "-//W3C//DTD SVG 1.1//EN" "http://www.w3.org/Graphics/SVG/1.1/DTD/svg11.dtd"><svg t="1590497154230" class="icon" viewBox="0 0 1024 1024" version="1.1" xmlns="http://www.w3.org/2000/svg" p-id="3965" xmlns:xlink="http://www.w3.org/1999/xlink" width="128" height="128"><defs><style type="text/css"></style></defs><path d="M424.228571 487.619048h82.895239c19.504762 0 34.133333-19.504762 34.133333-48.761905s-14.628571-48.761905-34.133333-48.761905H424.228571c-19.504762 0-34.133333 19.504762-34.133333 48.761905s14.628571 48.761905 34.133333 48.761905zM594.895238 585.142857H429.104762c-24.380952 0-39.009524 19.504762-39.009524 48.761905s14.628571 48.761905 39.009524 48.761905h160.914286c24.380952 0 39.009524-19.504762 39.009523-48.761905 4.87619-29.257143-9.752381-48.761905-34.133333-48.761905z" p-id="3966" fill="#2c2c2c"></path><path d="M512 48.761905C258.438095 48.761905 48.761905 258.438095 48.761905 512S258.438095 975.238095 512 975.238095s463.238095-209.67619 463.238095-463.238095S765.561905 48.761905 512 48.761905zM731.428571 668.038095c0 63.390476-48.761905 112.152381-107.27619 112.152381H399.847619C341.333333 780.190476 292.571429 731.428571 292.571429 668.038095V404.72381C292.571429 341.333333 341.333333 292.571429 399.847619 292.571429h146.285714c63.390476 0 112.152381 48.761905 112.152381 112.152381v78.019047c0 24.380952 14.628571 39.009524 39.009524 39.009524 19.504762 0 34.133333 14.628571 34.133333 39.009524v107.27619z" p-id="3967" fill="#2c2c2c"></path></svg>