<?xml version="1.0" standalone="no"?><!DOCTYPE svg PUBLIC "-//W3C//DTD SVG 1.1//EN" "http://www.w3.org/Graphics/SVG/1.1/DTD/svg11.dtd"><svg t="1588486849488" class="icon" viewBox="0 0 1024 1024" version="1.1" xmlns="http://www.w3.org/2000/svg" p-id="4622" xmlns:xlink="http://www.w3.org/1999/xlink" width="200" height="200"><defs><style type="text/css"></style></defs><path d="M539.818 950.773c-108.135 0-203.512-25.447-286.178-69.952-50.85-25.448-95.377-63.585-120.825-101.746-25.425-38.137-38.137-76.342-44.527-120.847 0-6.345 0-19.058 6.39-25.403 6.345-6.39 12.712-6.39 19.057-6.39h63.585v-12.712c0-50.85 12.713-108.068 38.16-152.573l6.368-6.368-44.528-50.872-6.367 6.367c-25.448 12.713-44.505 19.058-63.563 19.058-25.447 0-44.527-6.368-63.608-25.425C5.645 378.462-7.09 333.935 5.645 289.43c12.712-50.85 44.482-82.643 101.745-89.01h12.713v-12.736c6.367-57.24 31.815-95.4 82.687-108.112 6.345 0 19.058-6.368 25.425-6.368 31.793 0 57.218 12.713 82.666 44.528 31.77 44.527 31.77 89.032 6.367 139.905l-6.367 6.345 12.712 12.713c6.368 6.367 12.713 12.712 19.08 25.447l6.39 6.345h19.08c31.815-19.103 63.585-31.792 101.745-38.16 25.448-6.368 57.218-6.368 82.688-6.368 101.723 0 190.733 44.528 267.076 120.826 38.137 44.527 69.93 101.767 82.642 159.008 0 12.712 6.39 31.747 6.39 44.505l6.323 38.137h89.01c12.735 0 19.102 12.735 19.102 25.448 0 44.505-19.102 89.032-44.527 133.537-31.793 44.55-82.665 82.643-139.883 108.09-50.873 25.448-108.09 44.55-171.698 50.896-38.137 6.345-69.952 6.345-101.768 6.345l-25.425 0.022z m-394.29-241.628c0 6.345 6.39 12.713 6.39 12.713 19.057 38.137 50.872 69.953 95.4 101.745 69.953 44.505 158.985 69.953 260.708 76.298h44.528c31.77 0 63.562 0 101.722-6.345 63.608-6.345 114.458-25.448 165.353-50.85 50.85-25.448 89.033-50.895 114.435-89.033 12.713-19.057 25.448-38.137 25.448-57.24l6.367-19.103H132.815l12.713 31.815z m400.635-311.603c31.793 0 63.586 6.345 95.4 19.058 63.563 31.792 108.09 76.32 127.17 146.25 6.368 12.713 6.368 25.448 6.368 38.183l6.345 31.792h82.688s-6.367-44.55-6.367-50.895c0-6.39 0-12.735-6.368-25.448-19.08-76.32-63.563-139.905-127.17-184.41-57.24-38.16-114.458-57.24-178.066-57.24-31.815-6.368-63.607 0-101.745 12.713-120.848 38.16-190.778 127.192-216.225 247.972v50.896H736.94v-25.358c-12.712-69.975-50.895-114.48-120.848-146.295-25.425-6.368-50.895-6.368-69.952-6.368-19.103 0-25.448-12.712-19.103-25.447-6.3-19.035 6.413-25.403 19.125-25.403z m-368.82-57.217c6.345 0 12.712 0 19.08 6.367l57.24 57.218 63.585-69.975-57.24-50.85c-6.368-6.368-6.368-12.713-6.368-19.08 0-6.345 0-19.058 6.368-19.058l6.345-6.367c19.08-19.08 25.447-50.873 12.712-76.298-6.345-19.08-31.77-38.16-50.85-38.16h-12.712c-31.815 12.69-50.873 31.77-50.873 63.562 0 19.08 6.345 31.793 19.058 50.873 6.367 6.368 6.367 19.103 6.367 25.425-6.367 12.713-12.712 12.713-19.08 12.713-12.712 0-19.057-6.368-25.447-6.368-6.368-12.713-25.425-19.057-38.115-19.057-12.713 0-25.448 6.367-31.815 12.712-25.448 12.713-31.793 44.528-25.448 69.953 6.368 25.447 25.448 38.16 44.55 44.505h12.713c19.057 0 31.77-6.345 44.505-25.403l6.367-6.345c6.345-6.367 12.69-6.367 19.058-6.367z" p-id="4623"></path></svg>