<?xml version="1.0" standalone="no"?><!DOCTYPE svg PUBLIC "-//W3C//DTD SVG 1.1//EN" "http://www.w3.org/Graphics/SVG/1.1/DTD/svg11.dtd"><svg t="1590633030435" class="icon" viewBox="0 0 1024 1024" version="1.1" xmlns="http://www.w3.org/2000/svg" p-id="9972" xmlns:xlink="http://www.w3.org/1999/xlink" width="128" height="128"><defs><style type="text/css"></style></defs><path d="M921.6 777.212928c0 8.127488-0.386048 16.162816-1.101824 24.105984l-96.99328 0c1.127424-7.876608 1.72032-15.921152 1.72032-24.105984 0-74.360832-48.06144-137.483264-114.7904-159.976448l-29.775872-57.022464c0 0-4.937728-20.583424 0-48.219136 4.80256-26.865664 11.881472-47.579136 17.783808-61.616128 18.39616-13.113344 30.403584-34.615296 30.403584-58.935296 0-36.047872-26.359808-65.931264-60.84608-71.415808-7.786496-29.364224-17.644544-67.026944-25.001984-96.811008 4.47488-0.355328 8.998912-0.543744 13.565952-0.543744 93.14816 0 168.659968 75.559936 168.659968 168.77056 0 57.406464-28.649472 108.106752-72.410112 138.595328C851.59936 568.588288 921.6 664.717312 921.6 777.212928L921.6 777.212928zM728.84736 825.432064c0 8.113152-0.308224 16.154624-0.913408 24.114176L631.13216 849.54624c0.874496-7.919616 1.34144-15.962112 1.34144-24.114176 0-119.841792-97.088512-216.989696-216.849408-216.989696-119.758848 0-216.846336 97.147904-216.846336 216.989696 0 8.152064 0.466944 16.193536 1.34144 24.114176l-96.804864 0c-0.605184-7.958528-0.914432-16.001024-0.914432-24.114176 0-119.289856 66.601984-223.007744 164.619264-275.972096-42.005504-39.575552-68.241408-95.725568-68.241408-158.016512 0-119.842816 97.087488-216.989696 216.846336-216.989696 119.760896 0 216.849408 97.147904 216.849408 216.989696 0 62.28992-26.235904 118.439936-68.24448 158.016512C662.2464 602.42432 728.84736 706.142208 728.84736 825.432064L728.84736 825.432064zM415.623168 270.892032c-66.532352 0-120.46848 53.974016-120.46848 120.551424s53.936128 120.552448 120.46848 120.552448c66.533376 0 120.466432-53.97504 120.466432-120.552448S482.156544 270.892032 415.623168 270.892032L415.623168 270.892032z" p-id="9973"></path></svg>