<?xml version="1.0" standalone="no"?><!DOCTYPE svg PUBLIC "-//W3C//DTD SVG 1.1//EN" "http://www.w3.org/Graphics/SVG/1.1/DTD/svg11.dtd"><svg t="1590633308098" class="icon" viewBox="0 0 1024 1024" version="1.1" xmlns="http://www.w3.org/2000/svg" p-id="14069" xmlns:xlink="http://www.w3.org/1999/xlink" width="128" height="128"><defs><style type="text/css"></style></defs><path d="M650.24 117.76s-5.12 0-5.12-5.12h-5.12 5.12c0 5.12 0 5.12 5.12 5.12zM133.12 435.2c66.56-20.48 138.24 10.24 174.08 76.8-5.12-10.24-5.12-15.36 0-20.48 40.96-133.12 122.88-245.76 235.52-327.68l71.68-46.08c5.12-5.12 10.24-5.12 20.48-5.12-112.64-35.84-235.52-25.6-343.04 30.72C179.2 199.68 97.28 291.84 61.44 409.6c-5.12 10.24 0 20.48 5.12 25.6 5.12 5.12 15.36 10.24 25.6 5.12l40.96-5.12zM665.6 133.12l25.6 76.8c46.08 128 46.08 276.48 5.12 404.48-5.12 10.24-15.36 15.36-25.6 15.36h10.24c61.44-30.72 143.36-15.36 189.44 40.96l25.6 30.72c5.12 5.12 10.24 10.24 20.48 10.24h5.12c10.24 0 15.36-10.24 20.48-15.36 35.84-117.76 30.72-240.64-25.6-353.28-56.32-107.52-148.48-184.32-261.12-225.28 0 5.12 5.12 10.24 10.24 15.36z" fill="#474747" p-id="14070"></path><path d="M952.32 875.52c-40.96-20.48-87.04-25.6-133.12-10.24l-25.6 10.24c-35.84 10.24-76.8 5.12-107.52-15.36l-20.48-15.36c-51.2-35.84-117.76-40.96-174.08-10.24l-51.2 25.6c-5.12 0-10.24 0-10.24 5.12l107.52-327.68c46.08 20.48 87.04 51.2 117.76 87.04-5.12-5.12-10.24-15.36-5.12-25.6 40.96-122.88 35.84-250.88-5.12-373.76l-20.48-56.32-51.2 35.84c-102.4 71.68-179.2 179.2-220.16 296.96-5.12 10.24-10.24 15.36-20.48 15.36l46.08-5.12c35.84 0 71.68 0 102.4 10.24L368.64 870.4v5.12c-20.48 0-40.96-10.24-56.32-20.48-46.08-30.72-163.84-10.24-209.92 15.36-10.24 5.12-15.36 20.48-10.24 35.84 5.12 10.24 20.48 15.36 35.84 10.24 46.08-20.48 138.24-35.84 158.72-20.48 51.2 35.84 117.76 40.96 174.08 10.24l51.2-25.6c40.96-20.48 87.04-15.36 122.88 5.12l20.48 15.36c30.72 20.48 61.44 30.72 97.28 30.72 20.48 0 35.84-5.12 56.32-10.24l25.6-10.24c30.72-10.24 66.56-10.24 92.16 5.12 10.24 5.12 25.6 0 35.84-10.24 5.12-10.24 0-25.6-10.24-30.72z" fill="#474747" p-id="14071"></path></svg>