<?xml version="1.0" standalone="no"?><!DOCTYPE svg PUBLIC "-//W3C//DTD SVG 1.1//EN" "http://www.w3.org/Graphics/SVG/1.1/DTD/svg11.dtd"><svg t="1590495078809" class="icon" viewBox="0 0 1024 1024" version="1.1" xmlns="http://www.w3.org/2000/svg" p-id="3021" xmlns:xlink="http://www.w3.org/1999/xlink" width="128" height="128"><defs><style type="text/css"></style></defs><path d="M512 4.907c-275.968 0-501.76 225.792-501.76 501.76s225.792 501.76 501.76 501.76 501.76-225.792 501.76-501.76S787.968 4.907 512 4.907m0 940.8c-244.608 0-439.04-194.432-439.04-439.04S267.392 67.627 512 67.627s439.04 194.431 439.04 439.04S756.608 945.707 512 945.707" fill="#ffffff" p-id="3022"></path><path d="M512 694.827c-18.816 0-31.36 6.272-43.904 18.815-12.544 12.545-18.816 25.089-18.816 43.905 0 18.815 6.272 31.36 18.816 43.904 12.544 12.544 25.088 18.815 43.904 18.815 18.816 0 31.36-6.27 43.904-18.815 12.544-12.544 18.817-25.089 18.817-43.904 0-18.816-6.272-31.36-18.816-43.905C543.36 701.1 530.817 694.827 512 694.827z m-56.448-501.76l18.816 451.584h68.992l25.088-451.584H455.552z" fill="#ffffff" p-id="3023"></path></svg>