<?xml version="1.0" standalone="no"?><!DOCTYPE svg PUBLIC "-//W3C//DTD SVG 1.1//EN" "http://www.w3.org/Graphics/SVG/1.1/DTD/svg11.dtd"><svg t="1590632956385" class="icon" viewBox="0 0 1024 1024" version="1.1" xmlns="http://www.w3.org/2000/svg" p-id="3799" xmlns:xlink="http://www.w3.org/1999/xlink" width="128" height="128"><defs><style type="text/css"></style></defs><path d="M950.4 297.6l-288-288c-5.76-6.4-14.08-9.6-22.4-9.6H160.64c-53.12 0-96 42.88-96 96v832c0 53.12 42.88 96 96 96H864c53.12 0 96-42.88 96-96V320c0-8.32-3.2-16.64-9.6-22.4zM640 77.44L882.56 320H672c-17.92 0-32-14.08-32-32V77.44zM896 928c0 17.92-14.08 32-32 32H160.64c-17.92 0-32-14.08-32-32V96c0-17.92 14.08-32 32-32H576v224c0 53.12 42.88 96 96 96h224v544zM256 480c0 17.92 14.08 32 32 32h448c17.92 0 32-14.08 32-32s-14.08-32-32-32H288c-17.92 0-32 14.08-32 32z m480 160H288c-17.92 0-32 14.08-32 32s14.08 32 32 32h448c17.92 0 32-14.08 32-32s-14.08-32-32-32z" p-id="3800"></path></svg>